<svg data-name="Layer 1" xmlns="http://www.w3.org/2000/svg" viewBox="0 0 45 45" width="45" height="45"><path style="fill:#fff" d="M10.537 8.701h23.926a1.837 1.837 0 0 1 1.836 1.836v23.926a1.837 1.837 0 0 1-1.836 1.836H10.537a1.837 1.837 0 0 1-1.836-1.836V10.537a1.837 1.837 0 0 1 1.836-1.836"/><path d="M20.628 33.285h-6.131a1.58 1.58 0 0 1-1.58-1.581V13.298c0-1.794 2.513-2.204 3.08-.5l6.129 18.406a1.58 1.58 0 0 1-1.499 2.081" style="fill:#9a1b1f"/><path style="fill:#231f20" d="M32.082 20.461a4.84 4.84 0 0 1-4.84 4.84 4.84 4.84 0 0 1-4.839-4.84 4.84 4.84 0 0 1 9.679 0"/></svg>